<?xml version="1.0" encoding="UTF-8"?>
<svg xmlns="http://www.w3.org/2000/svg" viewBox="0 0 400 500" width="800" height="1000">
  <rect width="400" height="500" fill="#F0EFEC"/>
  <ellipse cx="201.53073372946037" cy="468" rx="73.47759065022574" ry="9" fill="#000" opacity="0.08"/>
  <path d="M133.79658732719105 148 L88.79658732719105 175 L118.79658732719105 210 L148.79658732719105 165 Z" fill="#1A1A1A" opacity="0.92"/><path d="M272.3263475906504 148 L332.633684885254 175 L287.3263475906504 210 L257.3263475906504 165 Z" fill="#1A1A1A" opacity="0.92"/>
  <path d="M128.79658732719105 150 C128.79658732719105 150 181.91341716182544 100 200 100 C221.91341716182544 100 277.3263475906504 150 277.3263475906504 150 L278.7040079471647 420 C277.3263475906504 445 230 458 200 458 C170 458 128.79658732719105 445 127.41892697067672 420 Z" fill="#1A1A1A"/>
  <path d="M166.45672280493227 105 C185 128 215 128 233.54327719506773 105 C210 92 205 88 200 88 C195 88 190 92 166.45672280493227 105 Z" fill="#1A1A1A" opacity="0.85"/>
  <ellipse cx="200" cy="100" rx="31.54327719506772" ry="12" fill="#F0EFEC"/>
  <text x="200" y="185" text-anchor="middle" font-family="system-ui,sans-serif" font-weight="700" font-size="22" fill="#F5F5F4" opacity="0.8985060433483824" transform="translate(2.2961005941905386,0) scale(0.9543277195067721,1)" style="transform-origin:200px 185px">brand</text>
</svg>