<?xml version="1.0" encoding="UTF-8"?>
<svg xmlns="http://www.w3.org/2000/svg" viewBox="0 0 400 500" width="800" height="1000">
  <rect width="400" height="500" fill="#F0EFEC"/>
  <ellipse cx="203.69551813004514" cy="468" rx="62.6536686473018" ry="9" fill="#000" opacity="0.08"/>
  <path d="M161.12699038457396 148 L116.12699038457396 175 L146.12699038457396 210 L176.12699038457396 165 Z" fill="#1A1A1A" opacity="0.92"/>
  <path d="M156.12699038457396 150 C156.12699038457396 150 184.61939766255642 100 200 100 C224.61939766255642 100 258.6550821356066 150 258.6550821356066 150 L261.98104845264726 420 C258.6550821356066 445 230 458 200 458 C170 458 156.12699038457396 445 152.80102406753332 420 Z" fill="#1A1A1A"/>
  <path d="M169.70389940580947 105 C185 128 215 128 230.29610059419053 105 C210 92 205 88 200 88 C195 88 190 92 169.70389940580947 105 Z" fill="#1A1A1A" opacity="0.85"/>
  <ellipse cx="200" cy="100" rx="28.296100594190538" ry="12" fill="#F0EFEC"/>
  <text x="200" y="185" text-anchor="middle" font-family="system-ui,sans-serif" font-weight="700" font-size="22" fill="#F5F5F4" opacity="0.1769112431534531" transform="translate(5.54327719506772,0) scale(0.6296100594190539,1)" style="transform-origin:200px 185px">brand</text>
</svg>