<?xml version="1.0" encoding="UTF-8"?>
<svg xmlns="http://www.w3.org/2000/svg" viewBox="0 0 400 500" width="800" height="1000">
  <rect width="400" height="500" fill="#F0EFEC"/>
  <ellipse cx="204" cy="468" rx="55" ry="9" fill="#000" opacity="0.08"/>
  <path d="M178 148 L133 175 L163 210 L193 165 Z" fill="#1A1A1A" opacity="0.92"/>
  <path d="M173 150 C173 150 185 100 200 100 C225 100 243 150 243 150 L246.6 420 C243 445 230 458 200 458 C170 458 173 445 169.4 420 Z" fill="#1A1A1A"/>
  <path d="M172 105 C185 128 215 128 228 105 C210 92 205 88 200 88 C195 88 190 92 172 105 Z" fill="#1A1A1A" opacity="0.85"/>
  <ellipse cx="200" cy="100" rx="26" ry="12" fill="#F0EFEC"/>
  
</svg>