<?xml version="1.0" encoding="UTF-8"?>
<svg xmlns="http://www.w3.org/2000/svg" viewBox="0 0 400 500" width="800" height="1000">
  <rect width="400" height="500" fill="#F0EFEC"/>
  <ellipse cx="202.82842712474618" cy="468" rx="69.14213562373095" ry="9" fill="#000" opacity="0.08"/>
  <path d="M145.60481604906408 148 L100.60481604906408 175 L130.60481604906408 210 L160.60481604906408 165 Z" fill="#1A1A1A" opacity="0.92"/>
  <path d="M140.60481604906408 150 C140.60481604906408 150 183.53553390593274 100 200 100 C223.53553390593274 100 270.70889244992065 150 270.70889244992065 150 L273.25447686219223 420 C270.70889244992065 445 230 458 200 458 C170 458 140.60481604906408 445 138.0592316367925 420 Z" fill="#1A1A1A"/>
  <path d="M167.7573593128807 105 C185 128 215 128 232.2426406871193 105 C210 92 205 88 200 88 C195 88 190 92 167.7573593128807 105 Z" fill="#1A1A1A" opacity="0.85"/>
  <ellipse cx="200" cy="100" rx="30.242640687119284" ry="12" fill="#F0EFEC"/>
  <text x="200" y="200" text-anchor="middle" font-family="system-ui,sans-serif" font-weight="700" font-size="28" fill="#F5F5F4" opacity="0.60947570824873" transform="translate(4.242640687119286,0) scale(0.8242640687119285,1)" style="transform-origin:200px 200px">brand</text>
</svg>