<?xml version="1.0" encoding="UTF-8"?>
<svg xmlns="http://www.w3.org/2000/svg" viewBox="0 0 400 500" width="800" height="1000">
  <rect width="400" height="500" fill="#F0EFEC"/>
  <ellipse cx="198.46926627053963" cy="468" rx="73.47759065022574" ry="9" fill="#000" opacity="0.08"/>
  <path d="M127.6736524093496 148 L67.36631511474602 175 L112.6736524093496 210 L142.6736524093496 165 Z" fill="#1A1A1A" opacity="0.92"/><path d="M266.20341267280895 148 L311.20341267280895 175 L281.20341267280895 210 L251.20341267280895 165 Z" fill="#1A1A1A" opacity="0.92"/>
  <path d="M122.6736524093496 150 C122.6736524093496 150 178.08658283817456 100 200 100 C218.08658283817456 100 271.20341267280895 150 271.20341267280895 150 L269.82575231629465 420 C271.20341267280895 445 230 458 200 458 C170 458 122.6736524093496 445 124.05131276586393 420 Z" fill="#1A1A1A"/>
  <path d="M166.45672280493227 105 C185 128 215 128 233.54327719506773 105 C210 92 205 88 200 88 C195 88 190 92 166.45672280493227 105 Z" fill="#1A1A1A" opacity="0.85"/>
  <ellipse cx="200" cy="100" rx="31.54327719506772" ry="12" fill="#F0EFEC"/>
  <text x="200" y="200" text-anchor="middle" font-family="system-ui,sans-serif" font-weight="700" font-size="28" fill="#F5F5F4" opacity="0.8985060433483825" transform="translate(-2.2961005941905377,0) scale(0.9543277195067721,1)" style="transform-origin:200px 200px">brand</text>
</svg>