<?xml version="1.0" encoding="UTF-8"?>
<svg xmlns="http://www.w3.org/2000/svg" viewBox="0 0 400 500" width="800" height="1000">
  <rect width="400" height="500" fill="#F0EFEC"/>
  <ellipse cx="197.17157287525382" cy="468" rx="69.14213562373095" ry="9" fill="#000" opacity="0.08"/>
  <path d="M254.39518395093592 148 L299.3951839509359 175 L269.3951839509359 210 L239.39518395093592 165 Z" fill="#1A1A1A" opacity="0.92"/>
  <path d="M129.29110755007935 150 C129.29110755007935 150 176.46446609406726 100 200 100 C216.46446609406726 100 259.3951839509359 150 259.3951839509359 150 L256.84959953866434 420 C259.3951839509359 445 230 458 200 458 C170 458 129.29110755007935 445 131.83669196235093 420 Z" fill="#1A1A1A"/>
  <path d="M167.7573593128807 105 C185 128 215 128 232.2426406871193 105 C210 92 205 88 200 88 C195 88 190 92 167.7573593128807 105 Z" fill="#1A1A1A" opacity="0.85"/>
  <ellipse cx="200" cy="100" rx="30.242640687119284" ry="12" fill="#F0EFEC"/>
  <text x="200" y="200" text-anchor="middle" font-family="system-ui,sans-serif" font-weight="700" font-size="28" fill="#F5F5F4" opacity="0.6094757082487302" transform="translate(-4.242640687119285,0) scale(0.8242640687119287,1)" style="transform-origin:200px 200px">brand</text>
</svg>