<?xml version="1.0" encoding="UTF-8"?>
<svg xmlns="http://www.w3.org/2000/svg" viewBox="0 0 400 500" width="800" height="1000">
  <rect width="400" height="500" fill="#F0EFEC"/>
  <ellipse cx="196.30448186995486" cy="468" rx="62.6536686473018" ry="9" fill="#000" opacity="0.08"/>
  <path d="M238.87300961542604 148 L283.87300961542604 175 L253.87300961542604 210 L223.87300961542604 165 Z" fill="#1A1A1A" opacity="0.92"/>
  <path d="M141.34491786439338 150 C141.34491786439338 150 175.38060233744358 100 200 100 C215.38060233744358 100 243.87300961542604 150 243.87300961542604 150 L240.5470432983854 420 C243.87300961542604 445 230 458 200 458 C170 458 141.34491786439338 445 144.67088418143402 420 Z" fill="#1A1A1A"/>
  <path d="M169.70389940580947 105 C185 128 215 128 230.29610059419053 105 C210 92 205 88 200 88 C195 88 190 92 169.70389940580947 105 Z" fill="#1A1A1A" opacity="0.85"/>
  <ellipse cx="200" cy="100" rx="28.29610059419054" ry="12" fill="#F0EFEC"/>
  <text x="200" y="185" text-anchor="middle" font-family="system-ui,sans-serif" font-weight="700" font-size="22" fill="#F5F5F4" opacity="0.17691124315345333" transform="translate(-5.54327719506772,0) scale(0.629610059419054,1)" style="transform-origin:200px 185px">brand</text>
</svg>